<?xml version="1.0" encoding="UTF-8"?>
<!DOCTYPE svg PUBLIC "-//W3C//DTD SVG 1.1//EN" "http://www.w3.org/Graphics/SVG/1.1/DTD/svg11.dtd">
<!-- Creator: CorelDRAW 2020 (64-Bit) -->
<svg xmlns="http://www.w3.org/2000/svg" xml:space="preserve" width="46cm" height="46cm" version="1.1" style="shape-rendering:geometricPrecision; text-rendering:geometricPrecision; image-rendering:optimizeQuality; fill-rule:evenodd; clip-rule:evenodd"
viewBox="0 0 46000 46000"
 xmlns:xlink="http://www.w3.org/1999/xlink"
 xmlns:xodm="http://www.corel.com/coreldraw/odm/2003">
 <defs>
  <style type="text/css">
   <![CDATA[
    .fil0 {fill:#0407E2}
    .fil2 {fill:#8688E9}
    .fil1 {fill:white}
   ]]>
  </style>
 </defs>
 <g id="Capa_x0020_1">
  <metadata id="CorelCorpID_0Corel-Layer"/>
  <g id="_1835186231968">
   <path class="fil0" d="M21856.82 542.25c-4611.39,268.44 -8974.42,1848.51 -12387.56,4488.15 -278.79,215.62 -524.11,394.53 -783.05,613.39l-2187.11 2046.31c-4013.06,4497.52 -6283.05,9954.59 -5979.69,16465.91 559.81,12015.74 10835.82,21948.94 23620.87,21323.58 12031.84,-588.49 21970.43,-10824.71 21322.09,-23643.44 -207.5,-4102.35 -1415.44,-7490.72 -3333.7,-10670.33 -344.02,-570.24 -765.24,-1199.86 -1154.58,-1683.17l-923.83 -1148.31c-620.84,-831.29 -2393.65,-2428.12 -3257.09,-3094.07 -542.57,-418.51 -1057.91,-778.46 -1662.99,-1175.01 -3712.78,-2433.01 -8571.63,-3796.67 -13273.36,-3523.01z"/>
   <path class="fil1" d="M22099.17 2014.49c-4729.77,287.54 -8946.39,1856.22 -12377.4,4710.1l-699.47 605.99c-1410.81,1222.2 -2633.06,2695.55 -3665.86,4262.43 -4042.91,6133.55 -4471.94,14153.97 -1225.87,20766.9 2253.24,4590.35 6201.02,8258.28 10902.96,10176.54 2691.27,1097.98 5716.6,1699.23 8968.95,1549.96 11301.73,-518.69 20555.21,-10030.56 20066.42,-21955.27 -124.92,-3047.2 -950.91,-6036.79 -2138.1,-8380.42 -1177.24,-2324.01 -2630.19,-4309.73 -4477,-6062.54 -749.22,-711.11 -2111.77,-1770.73 -2960.79,-2309.8 -3561.74,-2261.45 -7887.96,-3637.87 -12393.84,-3363.89z"/>
   <path class="fil0" d="M21854.48 2926.8c-4256.73,192.53 -8672.33,2006.2 -11739.7,4641.15 -246.33,211.58 -433.98,388.46 -671.85,588.92 -467.93,394.26 -1441.99,1434.46 -1857.78,1925.71 -569.76,673.02 -1107.65,1424.25 -1596.33,2187.87 -2236.79,3495.56 -3303.48,7605.31 -3083.8,11977.86 534.75,10642.4 9853.89,19622.64 21322.46,18923.5 2916.42,-177.8 5661.9,-972.54 7915.94,-2136.48 1163.83,-601 2182.15,-1238.06 3097.69,-1947.47 453.35,-351.27 974.53,-746.17 1370.16,-1152.13 212.7,-218.28 434.67,-389 654.62,-606.85 1775.09,-1758.29 3413.34,-4087.24 4504.13,-6846.31 2116.87,-5354.45 1861.28,-11433.21 -748.1,-16543.05 -785.56,-1538.31 -1522.96,-2556.38 -2508.03,-3798.21 -514.43,-648.45 -1873.74,-2034.45 -2514.9,-2530.21 -784.33,-606.53 -1220.49,-1024.19 -2184.6,-1599.76 -3748.42,-2237.71 -7240.03,-3297.98 -11959.91,-3084.54z"/>
   <path class="fil1" d="M33556.88 29464.49c891.01,60.65 1917.58,-327.49 2581.99,-649.29 832.64,-403.36 1328.18,-927.59 1827.55,-1460.75 1164.95,-1243.69 1668.63,-3108.64 1654.85,-4865.81 -20.53,-2609.37 -1392.61,-5197.89 -3555.34,-6251.34 -602.54,-293.55 -1849.48,-725.42 -2639.71,-631.31l-6872.61 2.97 1.43 13851.28 7001.84 4.25z"/>
   <path class="fil1" d="M13797.4 17744.22l3620.36 2021.41c368.65,-430.32 500.22,-676.69 1361.06,-780.16 1058.22,-127.15 2215.25,105.6 1869.58,1184.8 -269.9,842.73 -1701.08,289.67 -2751.01,488.21l-2.66 3478.11c589.61,100.65 1913.27,-104.06 2373.53,104.75 594.34,269.56 591.63,1367.38 97.15,1729.45 -731.55,535.61 -2862.37,262.65 -3343.17,-1237.41 -256.23,33.14 -2330.43,983.12 -2856.46,1207.99 -270.44,115.61 -732.83,350.11 -985.34,412.62 154.13,546.72 998.32,1394.35 1407.35,1810.42 414.83,422.03 1259.39,921.46 1993.34,1203.95 2979.04,1146.66 8090.76,470.65 9064.29,-2716.46 375.35,-1228.9 154.87,-2740.56 -789.65,-3664.84 -131.74,-128.85 -263.79,-255.62 -434.95,-375.21 -172,-120.23 -327.68,-182.69 -499.9,-302.34 167.49,-230.77 770.6,-511.24 1219.91,-1608.58 961.02,-2346.94 -430.42,-4328.02 -2825.76,-5084.3 -2346.93,-741.02 -7179.6,-521.36 -8517.67,2127.59z"/>
   <polygon class="fil1" points="12702.62,29457.95 12700.44,15614.76 7727.05,15614.6 7728.75,29458.32 "/>
   <path class="fil0" d="M31531.41 25963.4c2056.55,288.5 2816.99,-1548.9 2890.14,-3428.59 54.01,-1387.54 -370.19,-2589.79 -1539.4,-3205.09 -380.46,-200.19 -843.49,-279.4 -1350.79,-216.79l0.05 6850.47z"/>
   <path class="fil1" d="M22100.87 31588.21l3.19 4050.27 1299.98 0.05 5.91 -1693.12 1120.85 1694.08 1539.5 -0.59 2.98 -4282.86 -1306.84 -0.69 0.53 1682.59c-124.98,-105.23 -1031.09,-1491.66 -1113.4,-1681.68l-1553.02 -1.86 0.32 233.81z"/>
   <path class="fil1" d="M28984.86 31543.15l2.29 4096.44 1302.64 -1.91 3.3 -1670.4c400.58,319.08 887.87,1673.59 1276.58,1672.85l1383.51 -6.81 2.55 -4268.6 -1306.74 -11.44 0.54 1684.45c-127,-88.53 -996.78,-1449.9 -1113.72,-1675.62l-1550.52 -8.3 -0.43 189.34z"/>
   <path class="fil1" d="M21425.87 31363.17l-1535.04 -6.59 2.24 2711.08c-4.26,311.59 -62.52,501.3 -395.73,501.25 -534.75,-0.11 -393.92,-635.89 -394.08,-1404.25 -0.16,-602.16 -3.99,-1205.76 1.06,-1807.76l-1534.56 -0.91c3.73,759.58 -90.44,2495.1 28.41,3122 328.38,1731.53 3508.69,1708.28 3802.91,2.07 116.89,-677.92 19.05,-2326.77 24.79,-3116.89z"/>
   <path class="fil1" d="M14497.24 34031.06l-1447.36 331.59c229.1,1160.6 1965.09,1845.22 3217.08,1111.6 553.69,-324.46 709.63,-815.44 708.51,-1679.02 -1.06,-810.86 -5.63,-1624.33 1.07,-2434.98l-1532.86 -5.96c7.03,784.26 -0.53,1568.37 1.01,2350.87 0.75,380.32 82.74,817.2 -320.12,859.38 -449.15,47.03 -469.74,-297.86 -627.33,-533.48z"/>
   <polygon class="fil1" points="26738.38,35637.04 28268.9,35639.17 28271.45,31364.5 26737.21,31353.92 "/>
   <path class="fil2" d="M33556.88 29464.49l-7001.84 -4.25 -1.43 -13851.28 6872.61 -2.97 -143.39 -39.85c-60.17,-6.44 -162.64,-2.55 -226.33,-2.23 -1301.9,6.54 -5763.09,-54.8 -6514.07,8.67 -66.39,221.09 -72.67,13678.58 -1.17,13925.53 664.79,54.64 6812.01,60.28 7015.62,-33.62z"/>
   <path class="fil2" d="M12702.62 29457.95l-4973.87 0.37 -1.7 -13843.72 4973.39 0.16c-178.08,-116.93 -2278.46,-49.42 -2482.55,-49.63 -700,-0.69 -1852.66,-68.04 -2498.93,12.5 -63.05,177.95 -79.33,13682.05 -2.87,13916.07 503.25,56.44 3663.19,9.31 4710.4,13.56 353.97,1.44 213.19,-10.9 276.13,-49.31z"/>
  </g>
 </g>
</svg>
